<svg width="40" height="40" viewBox="0 0 40 40" fill="none" xmlns="http://www.w3.org/2000/svg">
<path fill-rule="evenodd" clip-rule="evenodd" d="M8 0C3.58172 0 0 3.58172 0 8V32C0 36.4183 3.58172 40 8 40H32C36.4183 40 40 36.4183 40 32V8C40 3.58172 36.4183 0 32 0H8ZM31.4275 13.4803C32.1353 14.2249 32.1353 15.4321 31.4275 16.1767L19.3441 28.8878C18.6363 29.6324 17.4887 29.6324 16.7809 28.8878L9.53087 21.2612C8.82304 20.5166 8.82304 19.3093 9.53087 18.5647C10.2387 17.8201 11.3863 17.8201 12.0941 18.5647L18.0625 24.8432L28.8642 13.4803C29.572 12.7357 30.7196 12.7357 31.4275 13.4803Z" fill="#D2AA67"/>
</svg>
