<svg width="416" height="148" viewBox="0 0 416 148" fill="none" xmlns="http://www.w3.org/2000/svg">
<path d="M6 0.666667C8.94552 0.666666 11.3333 3.05448 11.3333 6C11.3333 8.94552 8.94552 11.3333 6 11.3333C3.05448 11.3333 0.666667 8.94552 0.666667 6C0.666666 3.05448 3.05448 0.666667 6 0.666667ZM410 136.667C412.946 136.667 415.333 139.054 415.333 142C415.333 144.946 412.946 147.333 410 147.333C407.054 147.333 404.667 144.946 404.667 142C404.667 139.054 407.054 136.667 410 136.667ZM6.00001 142L6.00001 143L5.00001 143L5.00001 142L6.00001 142ZM7 6L7 7.88889L5 7.88889L5 6L7 6ZM7 11.6667L7 15.4444L5 15.4444L5 11.6667L7 11.6667ZM7 19.2222L7 23L5 23L5 19.2222L7 19.2222ZM7 26.7778L7 30.5556L5 30.5556L5 26.7778L7 26.7778ZM7 34.3333L7 38.1111L5 38.1111L5 34.3333L7 34.3333ZM7 41.8889L7 45.6667L5 45.6667L5 41.8889L7 41.8889ZM7 49.4445L7 53.2222L5 53.2222L5 49.4445L7 49.4445ZM7 57L7 60.7778L5 60.7778L5 57L7 57ZM7 64.5556L7 68.3333L5 68.3333L5 64.5556L7 64.5556ZM7 72.1111L7 75.8889L5 75.8889L5 72.1111L7 72.1111ZM7.00001 79.6667L7.00001 83.4445L5.00001 83.4445L5.00001 79.6667L7.00001 79.6667ZM7.00001 87.2222L7.00001 91L5.00001 91L5.00001 87.2222L7.00001 87.2222ZM7.00001 94.7778L7.00001 98.5556L5.00001 98.5556L5.00001 94.7778L7.00001 94.7778ZM7.00001 102.333L7.00001 106.111L5.00001 106.111L5.00001 102.333L7.00001 102.333ZM7.00001 109.889L7.00001 113.667L5.00001 113.667L5.00001 109.889L7.00001 109.889ZM7.00001 117.444L7.00001 121.222L5.00001 121.222L5.00001 117.444L7.00001 117.444ZM7.00001 125L7.00001 128.778L5.00001 128.778L5.00001 125L7.00001 125ZM7.00001 132.556L7.00001 136.333L5.00001 136.333L5.00001 132.556L7.00001 132.556ZM7.00001 140.111L7.00001 142L5.00001 142L5.00001 140.111L7.00001 140.111ZM6.00001 141L8.02001 141L8.02001 143L6.00001 143L6.00001 141ZM12.06 141L16.1 141L16.1 143L12.06 143L12.06 141ZM20.14 141L24.18 141L24.18 143L20.14 143L20.14 141ZM28.22 141L32.26 141L32.26 143L28.22 143L28.22 141ZM36.3 141L40.34 141L40.34 143L36.3 143L36.3 141ZM44.38 141L48.42 141L48.42 143L44.38 143L44.38 141ZM52.46 141L56.5 141L56.5 143L52.46 143L52.46 141ZM60.54 141L64.58 141L64.58 143L60.54 143L60.54 141ZM68.62 141L72.66 141L72.66 143L68.62 143L68.62 141ZM76.7 141L80.74 141L80.74 143L76.7 143L76.7 141ZM84.78 141L88.82 141L88.82 143L84.78 143L84.78 141ZM92.86 141L96.9 141L96.9 143L92.86 143L92.86 141ZM100.94 141L104.98 141L104.98 143L100.94 143L100.94 141ZM109.02 141L113.06 141L113.06 143L109.02 143L109.02 141ZM117.1 141L121.14 141L121.14 143L117.1 143L117.1 141ZM125.18 141L129.22 141L129.22 143L125.18 143L125.18 141ZM133.26 141L137.3 141L137.3 143L133.26 143L133.26 141ZM141.34 141L145.38 141L145.38 143L141.34 143L141.34 141ZM149.42 141L153.46 141L153.46 143L149.42 143L149.42 141ZM157.5 141L161.54 141L161.54 143L157.5 143L157.5 141ZM165.58 141L169.62 141L169.62 143L165.58 143L165.58 141ZM173.66 141L177.7 141L177.7 143L173.66 143L173.66 141ZM181.74 141L185.78 141L185.78 143L181.74 143L181.74 141ZM189.82 141L193.86 141L193.86 143L189.82 143L189.82 141ZM197.9 141L201.94 141L201.94 143L197.9 143L197.9 141ZM205.98 141L210.02 141L210.02 143L205.98 143L205.98 141ZM214.06 141L218.1 141L218.1 143L214.06 143L214.06 141ZM222.14 141L226.18 141L226.18 143L222.14 143L222.14 141ZM230.22 141L234.26 141L234.26 143L230.22 143L230.22 141ZM238.3 141L242.34 141L242.34 143L238.3 143L238.3 141ZM246.38 141L250.42 141L250.42 143L246.38 143L246.38 141ZM254.46 141L258.5 141L258.5 143L254.46 143L254.46 141ZM262.54 141L266.58 141L266.58 143L262.54 143L262.54 141ZM270.62 141L274.66 141L274.66 143L270.62 143L270.62 141ZM278.7 141L282.74 141L282.74 143L278.7 143L278.7 141ZM286.78 141L290.82 141L290.82 143L286.78 143L286.78 141ZM294.86 141L298.9 141L298.9 143L294.86 143L294.86 141ZM302.94 141L306.98 141L306.98 143L302.94 143L302.94 141ZM311.02 141L315.06 141L315.06 143L311.02 143L311.02 141ZM319.1 141L323.14 141L323.14 143L319.1 143L319.1 141ZM327.18 141L331.22 141L331.22 143L327.18 143L327.18 141ZM335.26 141L339.3 141L339.3 143L335.26 143L335.26 141ZM343.34 141L347.38 141L347.38 143L343.34 143L343.34 141ZM351.42 141L355.46 141L355.46 143L351.42 143L351.42 141ZM359.5 141L363.54 141L363.54 143L359.5 143L359.5 141ZM367.58 141L371.62 141L371.62 143L367.58 143L367.58 141ZM375.66 141L379.7 141L379.7 143L375.66 143L375.66 141ZM383.74 141L387.78 141L387.78 143L383.74 143L383.74 141ZM391.82 141L395.86 141L395.86 143L391.82 143L391.82 141ZM399.9 141L403.94 141L403.94 143L399.9 143L399.9 141ZM407.98 141L410 141L410 143L407.98 143L407.98 141Z" fill="#D2AA67"/>
</svg>
